<svg version="1.1" id="Layer_1" xmlns="http://www.w3.org/2000/svg" xmlns:xlink="http://www.w3.org/1999/xlink" x="0px" y="0px"
	 width="543.59px" height="235.878px" viewBox="0 0 543.59 235.878" style="enable-background:new 0 0 543.59 235.878;"
	 xml:space="preserve">
<path style="fill:#000000;" d="M42.996,233.374H0.958
	c2.669-3.829,4.492-8.501,5.472-14.021c0.177-1.514,0.354-3.449,0.534-5.808c0.177-2.358,0.267-4.829,0.267-7.413V29.34
	c0-5.518-0.267-9.836-0.801-12.951C5.45,10.872,3.627,6.197,0.958,2.368h42.038c-2.492,4.362-4.093,8.791-4.804,13.287
	c-0.713,4.496-1.068,9.058-1.068,13.686v176.792c0,2.584,0.044,4.944,0.134,7.08c0.087,2.135,0.267,4.005,0.534,5.606
	C38.679,223.982,40.414,228.833,42.996,233.374z"/>
<path style="fill:#000000;" d="M211.943,235.242
	c-12.367-3.023-24.088-6.939-35.165-11.744c-11.077-4.804-21.776-10.676-32.095-17.615c-22.243-14.768-39.681-32.383-52.313-52.847
	c-13.879-22.864-20.819-47.509-20.819-73.933c0-22.597,6.783-41.347,20.352-56.25C105.47,7.952,122.351,0.5,142.548,0.5
	c2.757,0,5.782,0.066,9.075,0.2c3.291,0.133,6.005,0.246,8.141,0.333l27.224,1.468v40.303c-3.292-2.135-6.672-4.091-10.142-5.872
	c-3.47-1.778-6.629-3.157-9.475-4.137c-5.695-1.689-12.368-2.536-20.018-2.536c-13.345,0-24.088,4.627-32.229,13.879
	c-8.141,9.254-12.211,21.532-12.211,36.833c0,21.442,6.76,41.993,20.285,61.655c11.564,16.727,26.467,30.65,44.707,41.77
	c16.636,10.056,31.315,15.08,44.039,15.08V235.242z"/>
<path style="fill:#000000;" d="M367.415,233.374h-41.903
	c2.728-3.824,4.589-8.495,5.591-14.013c0.454-3.38,0.682-7.783,0.682-13.211v-42.973h-67.126l-0.4,13.213c0,2.225,0,4.85,0,7.873
	c0,3.025,0,4.938,0,5.738c0,9.965,0.4,18.596,1.201,25.89c0.801,7.296,2.49,13.124,5.071,17.482h-43.239
	c3.023-4.448,5.205-8.941,6.539-13.479c0.711-2.579,1.245-4.892,1.602-6.939c0.354-2.046,0.534-4.314,0.534-6.806v-34.698
	c0-26.601,5.539-53.067,16.615-79.404c11.077-26.334,26.178-47.686,45.308-64.057c20.371-17.437,40.346-26.157,59.92-26.157h4.003
	c0.444,0,1.155,0.046,2.136,0.133c0.978,0.09,2.135,0.267,3.469,0.534c-2.314,3.916-3.916,8.097-4.804,12.545
	c-0.267,2.135-0.489,4.293-0.667,6.472c-0.18,2.181-0.268,4.517-0.268,7.006V206.15c0,2.581,0.045,4.938,0.134,7.072
	c0.088,2.135,0.267,4.004,0.534,5.605C363.233,223.811,364.923,228.659,367.415,233.374z M331.784,134.619V35.865
	c-10.343,5.605-20.462,14.903-30.358,27.892c-8.203,11.122-15.337,23.667-21.397,37.633c-5.172,12.01-8.784,23.086-10.833,33.229
	H331.784z"/>
<path style="fill:#000000;" d="M478.307,74.568l15.799,41.618l14.523,40.577
	l15.191,42.447c2.223,5.871,5.158,12.057,8.807,18.549c0.889,1.691,2.136,3.783,3.737,6.272c1.601,2.492,3.69,5.604,6.272,9.342
	h-48.043c1.067-2.314,1.889-4.649,2.469-7.011c0.578-2.357,0.867-4.873,0.867-7.544c0-2.669-0.267-5.474-0.797-8.411
	c-0.621-2.402-0.975-3.783-1.063-4.14c-0.088-0.354-0.42-1.268-0.995-2.735c-0.575-1.469-2.015-5.32-4.313-11.553
	c-2.832-7.832-5.223-14.239-7.168-19.225c-1.418-4.006-2.967-8.458-4.647-13.354c-0.884-2.582-2.919-8.145-6.105-16.689
	L447.87,74.524l-10.793,0.042V206.15c0,2.581,0.043,4.938,0.133,7.072c0.088,2.135,0.268,4.004,0.534,5.605
	c0.888,5.16,2.623,10.008,5.204,14.546h-42.037c2.67-3.829,4.492-8.501,5.472-14.021c0.177-1.514,0.354-3.449,0.534-5.808
	c0.177-2.358,0.267-4.829,0.267-7.413V29.34c0-5.518-0.267-9.836-0.801-12.951c-0.979-5.518-2.802-10.192-5.472-14.021h86.744
	c4.537,0,9.452,1.003,14.746,3.009c5.293,2.006,9.408,4.636,12.344,7.889c2.937,3.252,5.072,7.064,6.406,11.431
	c1.334,4.369,2.002,8.558,2.002,12.567c0,2.586-0.223,5.148-0.668,7.688c-0.445,2.54-1.29,5.192-2.535,7.955
	c-1.246,2.763-2.715,5.236-4.406,7.419c-1.69,2.185-3.426,4.125-5.204,5.817c-4.271,3.922-9.298,6.506-15.082,7.753
	c-1.958,0.358-4.493,0.582-7.606,0.669L478.307,74.568z M493.26,37.268c0-2.064-0.716-3.86-2.143-5.386
	c-1.426-1.526-3.211-2.29-5.35-2.29h-48.691v14.947h48.691c2.051,0,3.811-0.694,5.283-2.087
	C492.524,41.061,493.26,39.333,493.26,37.268z"/>
</svg>